<mxfile host="app.diagrams.net" agent="Mozilla/5.0 (Macintosh; Intel Mac OS X 10_15_7) AppleWebKit/605.1.15 (KHTML, like Gecko) Version/17.6 Safari/605.1.15" version="24.8.0">
  <diagram name="PÃ¡gina-1" id="_pN3nv1UNhNkybiQOVTH">
    <mxGraphModel dx="1272" dy="768" grid="1" gridSize="5" guides="1" tooltips="1" connect="1" arrows="1" fold="1" page="1" pageScale="1" pageWidth="1169" pageHeight="827" background="none" math="0" shadow="0">
      <root>
        <mxCell id="0" />
        <mxCell id="1" parent="0" />
        <mxCell id="K0L70VL3_cGCqX5cfnZf-15" value="" style="edgeStyle=orthogonalEdgeStyle;rounded=0;orthogonalLoop=1;jettySize=auto;html=1;labelBackgroundColor=none;strokeColor=#A8201A;fontColor=default;endArrow=none;endFill=0;fontSize=12;spacing=2;" parent="1" source="K0L70VL3_cGCqX5cfnZf-1" target="K0L70VL3_cGCqX5cfnZf-8" edge="1">
          <mxGeometry relative="1" as="geometry" />
        </mxCell>
        <mxCell id="K0L70VL3_cGCqX5cfnZf-1" value="USUARIO" style="rounded=0;whiteSpace=wrap;html=1;direction=east;labelBackgroundColor=none;fillColor=#FAE5C7;strokeColor=#0F8B8D;fontColor=#143642;fontSize=12;spacing=2;" parent="1" vertex="1">
          <mxGeometry x="80" y="201" width="120" height="60" as="geometry" />
        </mxCell>
        <mxCell id="K0L70VL3_cGCqX5cfnZf-18" value="" style="edgeStyle=orthogonalEdgeStyle;rounded=0;orthogonalLoop=1;jettySize=auto;html=1;labelBackgroundColor=none;strokeColor=#A8201A;fontColor=default;endArrow=none;endFill=0;fontSize=12;spacing=2;" parent="1" source="K0L70VL3_cGCqX5cfnZf-2" target="K0L70VL3_cGCqX5cfnZf-17" edge="1">
          <mxGeometry relative="1" as="geometry" />
        </mxCell>
        <mxCell id="K0L70VL3_cGCqX5cfnZf-2" value="PEDIDOS" style="rounded=0;whiteSpace=wrap;html=1;direction=east;labelBackgroundColor=none;fillColor=#FAE5C7;strokeColor=#0F8B8D;fontColor=#143642;fontSize=12;spacing=2;" parent="1" vertex="1">
          <mxGeometry x="510" y="201" width="120" height="60" as="geometry" />
        </mxCell>
        <mxCell id="K0L70VL3_cGCqX5cfnZf-3" value="PRODUCTO" style="rounded=0;whiteSpace=wrap;html=1;direction=east;labelBackgroundColor=none;fillColor=#FAE5C7;strokeColor=#0F8B8D;fontColor=#143642;fontSize=12;spacing=2;" parent="1" vertex="1">
          <mxGeometry x="510" y="566" width="120" height="60" as="geometry" />
        </mxCell>
        <mxCell id="K0L70VL3_cGCqX5cfnZf-27" value="" style="edgeStyle=orthogonalEdgeStyle;rounded=0;orthogonalLoop=1;jettySize=auto;html=1;labelBackgroundColor=none;strokeColor=#A8201A;fontColor=default;endArrow=none;endFill=0;fontSize=12;spacing=2;" parent="1" source="K0L70VL3_cGCqX5cfnZf-4" target="K0L70VL3_cGCqX5cfnZf-26" edge="1">
          <mxGeometry relative="1" as="geometry" />
        </mxCell>
        <mxCell id="K0L70VL3_cGCqX5cfnZf-4" value="INGREDIENTE" style="rounded=0;whiteSpace=wrap;html=1;direction=east;labelBackgroundColor=none;fillColor=#FAE5C7;strokeColor=#0F8B8D;fontColor=#143642;fontSize=12;spacing=2;" parent="1" vertex="1">
          <mxGeometry x="935" y="566" width="120" height="60" as="geometry" />
        </mxCell>
        <mxCell id="K0L70VL3_cGCqX5cfnZf-20" value="" style="edgeStyle=orthogonalEdgeStyle;rounded=0;orthogonalLoop=1;jettySize=auto;html=1;labelBackgroundColor=none;strokeColor=#A8201A;fontColor=default;endArrow=none;endFill=0;fontSize=12;spacing=2;" parent="1" source="K0L70VL3_cGCqX5cfnZf-5" target="K0L70VL3_cGCqX5cfnZf-9" edge="1">
          <mxGeometry relative="1" as="geometry" />
        </mxCell>
        <mxCell id="K0L70VL3_cGCqX5cfnZf-5" value="CATEGORIA" style="rounded=0;whiteSpace=wrap;html=1;direction=east;labelBackgroundColor=none;fillColor=#FAE5C7;strokeColor=#0F8B8D;fontColor=#143642;fontSize=12;spacing=2;" parent="1" vertex="1">
          <mxGeometry x="77.5" y="737.5" width="120" height="60" as="geometry" />
        </mxCell>
        <mxCell id="K0L70VL3_cGCqX5cfnZf-25" value="" style="edgeStyle=orthogonalEdgeStyle;rounded=0;orthogonalLoop=1;jettySize=auto;html=1;labelBackgroundColor=none;strokeColor=#A8201A;fontColor=default;endArrow=none;endFill=0;fontSize=12;spacing=2;" parent="1" source="K0L70VL3_cGCqX5cfnZf-7" target="K0L70VL3_cGCqX5cfnZf-11" edge="1">
          <mxGeometry relative="1" as="geometry" />
        </mxCell>
        <mxCell id="K0L70VL3_cGCqX5cfnZf-49" style="rounded=0;orthogonalLoop=1;jettySize=auto;html=1;exitX=0.5;exitY=1;exitDx=0;exitDy=0;entryX=1;entryY=0;entryDx=0;entryDy=0;labelBackgroundColor=none;strokeColor=#A8201A;fontColor=default;endArrow=none;endFill=0;fontSize=12;spacing=2;" parent="1" source="K0L70VL3_cGCqX5cfnZf-7" target="K0L70VL3_cGCqX5cfnZf-48" edge="1">
          <mxGeometry relative="1" as="geometry" />
        </mxCell>
        <mxCell id="K0L70VL3_cGCqX5cfnZf-7" value="DESCUENTO" style="rounded=0;whiteSpace=wrap;html=1;direction=east;labelBackgroundColor=none;fillColor=#FAE5C7;strokeColor=#0F8B8D;fontColor=#143642;fontSize=12;spacing=2;" parent="1" vertex="1">
          <mxGeometry x="1010" y="201" width="120" height="60" as="geometry" />
        </mxCell>
        <mxCell id="K0L70VL3_cGCqX5cfnZf-16" value="" style="edgeStyle=orthogonalEdgeStyle;rounded=0;orthogonalLoop=1;jettySize=auto;html=1;labelBackgroundColor=none;strokeColor=#A8201A;fontColor=default;endArrow=none;endFill=0;fontSize=12;spacing=2;" parent="1" source="K0L70VL3_cGCqX5cfnZf-8" target="K0L70VL3_cGCqX5cfnZf-2" edge="1">
          <mxGeometry relative="1" as="geometry" />
        </mxCell>
        <mxCell id="K0L70VL3_cGCqX5cfnZf-8" value="REALIZA" style="rhombus;whiteSpace=wrap;html=1;direction=east;labelBackgroundColor=none;fillColor=#FAE5C7;strokeColor=#0F8B8D;fontColor=#143642;fontSize=12;spacing=2;" parent="1" vertex="1">
          <mxGeometry x="320" y="191" width="80" height="80" as="geometry" />
        </mxCell>
        <mxCell id="K0L70VL3_cGCqX5cfnZf-21" value="" style="edgeStyle=orthogonalEdgeStyle;rounded=0;orthogonalLoop=1;jettySize=auto;html=1;labelBackgroundColor=none;strokeColor=#A8201A;fontColor=default;endArrow=none;endFill=0;fontSize=12;spacing=2;" parent="1" source="K0L70VL3_cGCqX5cfnZf-9" target="K0L70VL3_cGCqX5cfnZf-3" edge="1">
          <mxGeometry relative="1" as="geometry" />
        </mxCell>
        <mxCell id="K0L70VL3_cGCqX5cfnZf-9" value="PERTENEZE" style="rhombus;whiteSpace=wrap;html=1;direction=east;labelBackgroundColor=none;fillColor=#FAE5C7;strokeColor=#0F8B8D;fontColor=#143642;fontSize=12;spacing=2;" parent="1" vertex="1">
          <mxGeometry x="310" y="556" width="80" height="80" as="geometry" />
        </mxCell>
        <mxCell id="K0L70VL3_cGCqX5cfnZf-24" value="" style="edgeStyle=orthogonalEdgeStyle;rounded=0;orthogonalLoop=1;jettySize=auto;html=1;labelBackgroundColor=none;strokeColor=#A8201A;fontColor=default;endArrow=none;endFill=0;fontSize=12;spacing=2;" parent="1" source="K0L70VL3_cGCqX5cfnZf-11" target="K0L70VL3_cGCqX5cfnZf-2" edge="1">
          <mxGeometry relative="1" as="geometry" />
        </mxCell>
        <mxCell id="K0L70VL3_cGCqX5cfnZf-11" value="APLICAR" style="rhombus;whiteSpace=wrap;html=1;direction=east;labelBackgroundColor=none;fillColor=#FAE5C7;strokeColor=#0F8B8D;fontColor=#143642;fontSize=12;spacing=2;" parent="1" vertex="1">
          <mxGeometry x="775" y="191" width="80" height="80" as="geometry" />
        </mxCell>
        <mxCell id="K0L70VL3_cGCqX5cfnZf-19" value="" style="edgeStyle=orthogonalEdgeStyle;rounded=0;orthogonalLoop=1;jettySize=auto;html=1;labelBackgroundColor=none;strokeColor=#A8201A;fontColor=default;endArrow=none;endFill=0;fontSize=12;spacing=2;" parent="1" source="K0L70VL3_cGCqX5cfnZf-17" target="K0L70VL3_cGCqX5cfnZf-3" edge="1">
          <mxGeometry relative="1" as="geometry" />
        </mxCell>
        <mxCell id="K0L70VL3_cGCqX5cfnZf-17" value="COMPUESTO" style="rhombus;whiteSpace=wrap;html=1;direction=east;labelBackgroundColor=none;fillColor=#FAE5C7;strokeColor=#0F8B8D;fontColor=#143642;fontSize=12;spacing=2;" parent="1" vertex="1">
          <mxGeometry x="530" y="346" width="80" height="80" as="geometry" />
        </mxCell>
        <mxCell id="K0L70VL3_cGCqX5cfnZf-28" value="" style="edgeStyle=orthogonalEdgeStyle;rounded=0;orthogonalLoop=1;jettySize=auto;html=1;entryX=1;entryY=0.5;entryDx=0;entryDy=0;labelBackgroundColor=none;strokeColor=#A8201A;fontColor=default;endArrow=none;endFill=0;fontSize=12;spacing=2;" parent="1" source="K0L70VL3_cGCqX5cfnZf-26" target="K0L70VL3_cGCqX5cfnZf-3" edge="1">
          <mxGeometry relative="1" as="geometry">
            <mxPoint x="860" y="686" as="targetPoint" />
          </mxGeometry>
        </mxCell>
        <mxCell id="K0L70VL3_cGCqX5cfnZf-26" value="CONTIENE" style="rhombus;whiteSpace=wrap;html=1;direction=east;labelBackgroundColor=none;fillColor=#FAE5C7;strokeColor=#0F8B8D;fontColor=#143642;fontSize=12;spacing=2;" parent="1" vertex="1">
          <mxGeometry x="775" y="556" width="80" height="80" as="geometry" />
        </mxCell>
        <mxCell id="K0L70VL3_cGCqX5cfnZf-38" value="es base" style="ellipse;whiteSpace=wrap;html=1;direction=east;labelBackgroundColor=none;fillColor=#FAE5C7;strokeColor=#0F8B8D;fontColor=#143642;aspect=fixed;fontSize=10;spacing=2;" parent="1" vertex="1">
          <mxGeometry x="750" y="703.12" width="55" height="34.38" as="geometry" />
        </mxCell>
        <mxCell id="K0L70VL3_cGCqX5cfnZf-39" value="es extra" style="ellipse;whiteSpace=wrap;html=1;direction=east;labelBackgroundColor=none;fillColor=#FAE5C7;strokeColor=#0F8B8D;fontColor=#143642;aspect=fixed;fontSize=10;spacing=2;" parent="1" vertex="1">
          <mxGeometry x="825" y="703.12" width="55" height="34.38" as="geometry" />
        </mxCell>
        <mxCell id="K0L70VL3_cGCqX5cfnZf-151" style="rounded=0;orthogonalLoop=1;jettySize=auto;html=1;exitX=0;exitY=1;exitDx=0;exitDy=0;entryX=1;entryY=0;entryDx=0;entryDy=0;strokeColor=#A8201A;fontColor=#143642;fillColor=#FAE5C7;endArrow=none;endFill=0;" parent="1" source="K0L70VL3_cGCqX5cfnZf-48" target="K0L70VL3_cGCqX5cfnZf-3" edge="1">
          <mxGeometry relative="1" as="geometry" />
        </mxCell>
        <mxCell id="K0L70VL3_cGCqX5cfnZf-48" value="TIENE" style="rhombus;whiteSpace=wrap;html=1;labelBackgroundColor=none;fillColor=#FAE5C7;strokeColor=#0F8B8D;fontColor=#143642;fontSize=12;spacing=2;" parent="1" vertex="1">
          <mxGeometry x="845" y="346" width="80" height="80" as="geometry" />
        </mxCell>
        <mxCell id="K0L70VL3_cGCqX5cfnZf-55" style="rounded=0;orthogonalLoop=1;jettySize=auto;html=1;exitX=1;exitY=1;exitDx=0;exitDy=0;entryX=0;entryY=0;entryDx=0;entryDy=0;strokeColor=#A8201A;fontColor=#143642;fillColor=#FAE5C7;endArrow=none;endFill=0;fontSize=12;spacing=2;" parent="1" source="K0L70VL3_cGCqX5cfnZf-54" target="K0L70VL3_cGCqX5cfnZf-3" edge="1">
          <mxGeometry relative="1" as="geometry" />
        </mxCell>
        <mxCell id="K0L70VL3_cGCqX5cfnZf-56" style="rounded=0;orthogonalLoop=1;jettySize=auto;html=1;exitX=0;exitY=0;exitDx=0;exitDy=0;entryX=0.5;entryY=1;entryDx=0;entryDy=0;strokeColor=#A8201A;fontColor=#143642;fillColor=#FAE5C7;endArrow=none;endFill=0;fontSize=12;spacing=2;" parent="1" source="K0L70VL3_cGCqX5cfnZf-54" target="K0L70VL3_cGCqX5cfnZf-1" edge="1">
          <mxGeometry relative="1" as="geometry" />
        </mxCell>
        <mxCell id="K0L70VL3_cGCqX5cfnZf-54" value="VALORA" style="rhombus;whiteSpace=wrap;html=1;strokeColor=#0F8B8D;fontColor=#143642;fillColor=#FAE5C7;fontSize=12;spacing=2;" parent="1" vertex="1">
          <mxGeometry x="285" y="376" width="80" height="80" as="geometry" />
        </mxCell>
        <mxCell id="K0L70VL3_cGCqX5cfnZf-66" value="&lt;u style=&quot;font-size: 10px;&quot;&gt;pedido_id&lt;/u&gt;" style="ellipse;whiteSpace=wrap;html=1;strokeColor=#0F8B8D;fontColor=#143642;fillColor=#FAE5C7;aspect=fixed;fontSize=10;spacing=2;" parent="1" vertex="1">
          <mxGeometry x="442.5" y="45" width="55" height="41.25" as="geometry" />
        </mxCell>
        <mxCell id="K0L70VL3_cGCqX5cfnZf-72" value="&lt;u style=&quot;font-size: 10px;&quot;&gt;&lt;i style=&quot;font-size: 10px;&quot;&gt;(user_id)&lt;/i&gt;&lt;/u&gt;" style="ellipse;whiteSpace=wrap;html=1;strokeColor=#0F8B8D;fontColor=#143642;fillColor=#FAE5C7;aspect=fixed;fontSize=10;spacing=2;" parent="1" vertex="1">
          <mxGeometry x="502.5" y="45" width="55" height="41.25" as="geometry" />
        </mxCell>
        <mxCell id="K0L70VL3_cGCqX5cfnZf-73" value="&lt;u style=&quot;font-size: 10px;&quot;&gt;(discount_id)&lt;/u&gt;" style="ellipse;whiteSpace=wrap;html=1;strokeColor=#0F8B8D;fontColor=#143642;fillColor=#FAE5C7;aspect=fixed;fontSize=10;spacing=2;" parent="1" vertex="1">
          <mxGeometry x="565" y="45" width="55" height="41.25" as="geometry" />
        </mxCell>
        <mxCell id="5_Jmh0Oqb7QsA0RRIlAC-46" style="rounded=0;orthogonalLoop=1;jettySize=auto;html=1;exitX=0.5;exitY=1;exitDx=0;exitDy=0;entryX=0.5;entryY=0;entryDx=0;entryDy=0;fillColor=#f8cecc;strokeColor=#b85450;endArrow=none;endFill=0;" edge="1" parent="1" source="K0L70VL3_cGCqX5cfnZf-74" target="K0L70VL3_cGCqX5cfnZf-2">
          <mxGeometry relative="1" as="geometry" />
        </mxCell>
        <mxCell id="K0L70VL3_cGCqX5cfnZf-74" value="metodo_envio" style="ellipse;whiteSpace=wrap;html=1;strokeColor=#0F8B8D;fontColor=#143642;fillColor=#FAE5C7;aspect=fixed;fontSize=10;spacing=2;" parent="1" vertex="1">
          <mxGeometry x="442.5" y="95" width="55" height="41.25" as="geometry" />
        </mxCell>
        <mxCell id="5_Jmh0Oqb7QsA0RRIlAC-44" style="rounded=0;orthogonalLoop=1;jettySize=auto;html=1;exitX=0.5;exitY=1;exitDx=0;exitDy=0;entryX=0.5;entryY=0;entryDx=0;entryDy=0;fillColor=#f8cecc;strokeColor=#b85450;endArrow=none;endFill=0;" edge="1" parent="1" source="K0L70VL3_cGCqX5cfnZf-75" target="K0L70VL3_cGCqX5cfnZf-2">
          <mxGeometry relative="1" as="geometry" />
        </mxCell>
        <mxCell id="K0L70VL3_cGCqX5cfnZf-75" value="estado" style="ellipse;whiteSpace=wrap;html=1;strokeColor=#0F8B8D;fontColor=#143642;fillColor=#FAE5C7;aspect=fixed;fontSize=10;spacing=2;" parent="1" vertex="1">
          <mxGeometry x="502.5" y="95" width="55" height="41.25" as="geometry" />
        </mxCell>
        <mxCell id="5_Jmh0Oqb7QsA0RRIlAC-45" style="rounded=0;orthogonalLoop=1;jettySize=auto;html=1;exitX=0.5;exitY=1;exitDx=0;exitDy=0;entryX=0.5;entryY=0;entryDx=0;entryDy=0;fillColor=#f8cecc;strokeColor=#b85450;endArrow=none;endFill=0;" edge="1" parent="1" source="K0L70VL3_cGCqX5cfnZf-76" target="K0L70VL3_cGCqX5cfnZf-2">
          <mxGeometry relative="1" as="geometry" />
        </mxCell>
        <mxCell id="K0L70VL3_cGCqX5cfnZf-76" value="date_creation" style="ellipse;whiteSpace=wrap;html=1;strokeColor=#0F8B8D;fontColor=#143642;fillColor=#FAE5C7;aspect=fixed;fontSize=10;spacing=2;" parent="1" vertex="1">
          <mxGeometry x="570" y="95" width="55" height="41.25" as="geometry" />
        </mxCell>
        <mxCell id="K0L70VL3_cGCqX5cfnZf-77" value="subtotal" style="ellipse;whiteSpace=wrap;html=1;strokeColor=#0F8B8D;fontColor=#143642;fillColor=#FAE5C7;aspect=fixed;fontSize=10;spacing=2;" parent="1" vertex="1">
          <mxGeometry x="632.5" y="45" width="55" height="41.25" as="geometry" />
        </mxCell>
        <mxCell id="5_Jmh0Oqb7QsA0RRIlAC-43" style="rounded=0;orthogonalLoop=1;jettySize=auto;html=1;exitX=0.5;exitY=1;exitDx=0;exitDy=0;entryX=0.5;entryY=0;entryDx=0;entryDy=0;fillColor=#f8cecc;strokeColor=#b85450;endArrow=none;endFill=0;" edge="1" parent="1" source="K0L70VL3_cGCqX5cfnZf-78" target="K0L70VL3_cGCqX5cfnZf-2">
          <mxGeometry relative="1" as="geometry" />
        </mxCell>
        <mxCell id="K0L70VL3_cGCqX5cfnZf-78" value="impuestos" style="ellipse;whiteSpace=wrap;html=1;strokeColor=#0F8B8D;fontColor=#143642;fillColor=#FAE5C7;aspect=fixed;fontSize=10;spacing=2;" parent="1" vertex="1">
          <mxGeometry x="632.5" y="95" width="55" height="41.25" as="geometry" />
        </mxCell>
        <mxCell id="K0L70VL3_cGCqX5cfnZf-79" value="precio_total" style="ellipse;whiteSpace=wrap;html=1;strokeColor=#0F8B8D;fontColor=#143642;fillColor=#FAE5C7;aspect=fixed;fontSize=10;spacing=2;" parent="1" vertex="1">
          <mxGeometry x="697.5" y="45" width="55" height="41.25" as="geometry" />
        </mxCell>
        <mxCell id="K0L70VL3_cGCqX5cfnZf-83" value="&lt;u style=&quot;font-size: 10px;&quot;&gt;user_id&lt;/u&gt;" style="ellipse;whiteSpace=wrap;html=1;strokeColor=#0F8B8D;fontColor=#143642;fillColor=#FAE5C7;aspect=fixed;fontSize=10;spacing=2;" parent="1" vertex="1">
          <mxGeometry x="7" y="45" width="55" height="41.25" as="geometry" />
        </mxCell>
        <mxCell id="K0L70VL3_cGCqX5cfnZf-84" value="mail" style="ellipse;whiteSpace=wrap;html=1;strokeColor=#0F8B8D;fontColor=#143642;fillColor=#FAE5C7;aspect=fixed;fontSize=10;spacing=2;" parent="1" vertex="1">
          <mxGeometry x="72" y="45" width="55" height="41.25" as="geometry" />
        </mxCell>
        <mxCell id="K0L70VL3_cGCqX5cfnZf-85" value="passwd" style="ellipse;whiteSpace=wrap;html=1;strokeColor=#0F8B8D;fontColor=#143642;fillColor=#FAE5C7;aspect=fixed;fontSize=10;spacing=2;" parent="1" vertex="1">
          <mxGeometry x="133" y="45" width="55" height="41.25" as="geometry" />
        </mxCell>
        <mxCell id="5_Jmh0Oqb7QsA0RRIlAC-9" style="rounded=0;orthogonalLoop=1;jettySize=auto;html=1;exitX=0.5;exitY=1;exitDx=0;exitDy=0;entryX=0.5;entryY=0;entryDx=0;entryDy=0;fillColor=#f8cecc;strokeColor=#b85450;endArrow=none;endFill=0;" edge="1" parent="1" source="K0L70VL3_cGCqX5cfnZf-86" target="K0L70VL3_cGCqX5cfnZf-1">
          <mxGeometry relative="1" as="geometry" />
        </mxCell>
        <mxCell id="K0L70VL3_cGCqX5cfnZf-86" value="name" style="ellipse;whiteSpace=wrap;html=1;strokeColor=#0F8B8D;fontColor=#143642;fillColor=#FAE5C7;aspect=fixed;fontSize=10;spacing=2;" parent="1" vertex="1">
          <mxGeometry x="7" y="95" width="55" height="41.25" as="geometry" />
        </mxCell>
        <mxCell id="5_Jmh0Oqb7QsA0RRIlAC-10" style="rounded=0;orthogonalLoop=1;jettySize=auto;html=1;exitX=0.5;exitY=1;exitDx=0;exitDy=0;entryX=0.5;entryY=0;entryDx=0;entryDy=0;fillColor=#f8cecc;strokeColor=#b85450;endArrow=none;endFill=0;" edge="1" parent="1" source="K0L70VL3_cGCqX5cfnZf-87" target="K0L70VL3_cGCqX5cfnZf-1">
          <mxGeometry relative="1" as="geometry" />
        </mxCell>
        <mxCell id="K0L70VL3_cGCqX5cfnZf-87" value="surname_1" style="ellipse;whiteSpace=wrap;html=1;strokeColor=#0F8B8D;fontColor=#143642;fillColor=#FAE5C7;aspect=fixed;fontSize=10;spacing=2;" parent="1" vertex="1">
          <mxGeometry x="72" y="95" width="55" height="41.25" as="geometry" />
        </mxCell>
        <mxCell id="5_Jmh0Oqb7QsA0RRIlAC-11" style="rounded=0;orthogonalLoop=1;jettySize=auto;html=1;exitX=0.5;exitY=1;exitDx=0;exitDy=0;entryX=0.5;entryY=0;entryDx=0;entryDy=0;fillColor=#f8cecc;strokeColor=#b85450;endArrow=none;endFill=0;" edge="1" parent="1" source="K0L70VL3_cGCqX5cfnZf-88" target="K0L70VL3_cGCqX5cfnZf-1">
          <mxGeometry relative="1" as="geometry" />
        </mxCell>
        <mxCell id="K0L70VL3_cGCqX5cfnZf-88" value="surname_2" style="ellipse;whiteSpace=wrap;html=1;strokeColor=#0F8B8D;fontColor=#143642;fillColor=#FAE5C7;aspect=fixed;fontSize=10;spacing=2;" parent="1" vertex="1">
          <mxGeometry x="137" y="95" width="55" height="41.25" as="geometry" />
        </mxCell>
        <mxCell id="K0L70VL3_cGCqX5cfnZf-89" value="direccion" style="ellipse;whiteSpace=wrap;html=1;strokeColor=#0F8B8D;fontColor=#143642;fillColor=#FAE5C7;aspect=fixed;fontSize=10;spacing=2;" parent="1" vertex="1">
          <mxGeometry x="269.5" y="45" width="55" height="41.25" as="geometry" />
        </mxCell>
        <mxCell id="5_Jmh0Oqb7QsA0RRIlAC-14" style="rounded=0;orthogonalLoop=1;jettySize=auto;html=1;exitX=0.5;exitY=1;exitDx=0;exitDy=0;entryX=0.5;entryY=0;entryDx=0;entryDy=0;fillColor=#f8cecc;strokeColor=#b85450;endArrow=none;endFill=0;" edge="1" parent="1" source="K0L70VL3_cGCqX5cfnZf-90" target="K0L70VL3_cGCqX5cfnZf-1">
          <mxGeometry relative="1" as="geometry" />
        </mxCell>
        <mxCell id="K0L70VL3_cGCqX5cfnZf-90" value="poblaciÃ³n" style="ellipse;whiteSpace=wrap;html=1;strokeColor=#0F8B8D;fontColor=#143642;fillColor=#FAE5C7;aspect=fixed;fontSize=10;spacing=2;" parent="1" vertex="1">
          <mxGeometry x="269.5" y="95" width="55" height="41.25" as="geometry" />
        </mxCell>
        <mxCell id="K0L70VL3_cGCqX5cfnZf-91" value="ciudad" style="ellipse;whiteSpace=wrap;html=1;strokeColor=#0F8B8D;fontColor=#143642;fillColor=#FAE5C7;aspect=fixed;fontSize=10;spacing=2;" parent="1" vertex="1">
          <mxGeometry x="332" y="45" width="55" height="41.25" as="geometry" />
        </mxCell>
        <mxCell id="K0L70VL3_cGCqX5cfnZf-92" value="date_creation" style="ellipse;whiteSpace=wrap;html=1;strokeColor=#0F8B8D;fontColor=#143642;fillColor=#FAE5C7;aspect=fixed;fontSize=10;spacing=2;" parent="1" vertex="1">
          <mxGeometry x="202" y="45" width="55" height="41.25" as="geometry" />
        </mxCell>
        <mxCell id="5_Jmh0Oqb7QsA0RRIlAC-13" style="rounded=0;orthogonalLoop=1;jettySize=auto;html=1;exitX=0.5;exitY=1;exitDx=0;exitDy=0;entryX=0.5;entryY=0;entryDx=0;entryDy=0;fillColor=#f8cecc;strokeColor=#b85450;endArrow=none;endFill=0;" edge="1" parent="1" source="K0L70VL3_cGCqX5cfnZf-93" target="K0L70VL3_cGCqX5cfnZf-1">
          <mxGeometry relative="1" as="geometry" />
        </mxCell>
        <mxCell id="K0L70VL3_cGCqX5cfnZf-93" value="date_mondify" style="ellipse;whiteSpace=wrap;html=1;strokeColor=#0F8B8D;fontColor=#143642;fillColor=#FAE5C7;aspect=fixed;fontSize=10;spacing=2;" parent="1" vertex="1">
          <mxGeometry x="202" y="96.25" width="55" height="41.25" as="geometry" />
        </mxCell>
        <mxCell id="K0L70VL3_cGCqX5cfnZf-119" style="edgeStyle=none;rounded=0;orthogonalLoop=1;jettySize=auto;html=1;exitX=0.5;exitY=1;exitDx=0;exitDy=0;entryX=0.5;entryY=0;entryDx=0;entryDy=0;strokeColor=#A8201A;fontColor=#143642;fillColor=#FAE5C7;endArrow=none;endFill=0;fontSize=12;spacing=2;" parent="1" source="K0L70VL3_cGCqX5cfnZf-98" target="K0L70VL3_cGCqX5cfnZf-5" edge="1">
          <mxGeometry relative="1" as="geometry" />
        </mxCell>
        <mxCell id="K0L70VL3_cGCqX5cfnZf-98" value="&lt;u style=&quot;font-size: 10px;&quot;&gt;category_id&lt;/u&gt;" style="ellipse;whiteSpace=wrap;html=1;strokeColor=#0F8B8D;fontColor=#143642;fillColor=#FAE5C7;aspect=fixed;fontSize=10;spacing=2;" parent="1" vertex="1">
          <mxGeometry x="20" y="636.5" width="55" height="41.25" as="geometry" />
        </mxCell>
        <mxCell id="K0L70VL3_cGCqX5cfnZf-120" style="edgeStyle=none;rounded=0;orthogonalLoop=1;jettySize=auto;html=1;exitX=0.5;exitY=1;exitDx=0;exitDy=0;entryX=0.5;entryY=0;entryDx=0;entryDy=0;strokeColor=#A8201A;fontColor=#143642;fillColor=#FAE5C7;endArrow=none;endFill=0;fontSize=12;spacing=2;" parent="1" source="K0L70VL3_cGCqX5cfnZf-99" target="K0L70VL3_cGCqX5cfnZf-5" edge="1">
          <mxGeometry relative="1" as="geometry" />
        </mxCell>
        <mxCell id="K0L70VL3_cGCqX5cfnZf-99" value="name" style="ellipse;whiteSpace=wrap;html=1;strokeColor=#0F8B8D;fontColor=#143642;fillColor=#FAE5C7;aspect=fixed;fontSize=10;spacing=2;" parent="1" vertex="1">
          <mxGeometry x="100" y="636.5" width="55" height="41.25" as="geometry" />
        </mxCell>
        <mxCell id="K0L70VL3_cGCqX5cfnZf-121" style="edgeStyle=none;rounded=0;orthogonalLoop=1;jettySize=auto;html=1;exitX=0.5;exitY=1;exitDx=0;exitDy=0;entryX=0.5;entryY=0;entryDx=0;entryDy=0;strokeColor=#A8201A;fontColor=#143642;fillColor=#FAE5C7;endArrow=none;endFill=0;fontSize=12;spacing=2;" parent="1" source="K0L70VL3_cGCqX5cfnZf-100" target="K0L70VL3_cGCqX5cfnZf-5" edge="1">
          <mxGeometry relative="1" as="geometry" />
        </mxCell>
        <mxCell id="K0L70VL3_cGCqX5cfnZf-100" value="date_creation" style="ellipse;whiteSpace=wrap;html=1;strokeColor=#0F8B8D;fontColor=#143642;fillColor=#FAE5C7;aspect=fixed;fontSize=10;spacing=2;" parent="1" vertex="1">
          <mxGeometry x="185" y="636.5" width="55" height="41.25" as="geometry" />
        </mxCell>
        <mxCell id="5_Jmh0Oqb7QsA0RRIlAC-49" style="rounded=0;orthogonalLoop=1;jettySize=auto;html=1;exitX=0.5;exitY=0;exitDx=0;exitDy=0;entryX=0.5;entryY=1;entryDx=0;entryDy=0;endArrow=none;endFill=0;fillColor=#f8cecc;strokeColor=#b85450;" edge="1" parent="1" source="K0L70VL3_cGCqX5cfnZf-105" target="K0L70VL3_cGCqX5cfnZf-3">
          <mxGeometry relative="1" as="geometry" />
        </mxCell>
        <mxCell id="K0L70VL3_cGCqX5cfnZf-105" value="&lt;u style=&quot;font-size: 10px;&quot;&gt;producto_id&lt;/u&gt;" style="ellipse;whiteSpace=wrap;html=1;strokeColor=#0F8B8D;fontColor=#143642;fillColor=#FAE5C7;aspect=fixed;fontSize=10;spacing=2;" parent="1" vertex="1">
          <mxGeometry x="452.5" y="674.68" width="55" height="41.25" as="geometry" />
        </mxCell>
        <mxCell id="5_Jmh0Oqb7QsA0RRIlAC-50" style="rounded=0;orthogonalLoop=1;jettySize=auto;html=1;exitX=0.5;exitY=0;exitDx=0;exitDy=0;entryX=0.5;entryY=1;entryDx=0;entryDy=0;endArrow=none;endFill=0;fillColor=#f8cecc;strokeColor=#b85450;" edge="1" parent="1" source="K0L70VL3_cGCqX5cfnZf-106" target="K0L70VL3_cGCqX5cfnZf-3">
          <mxGeometry relative="1" as="geometry" />
        </mxCell>
        <mxCell id="K0L70VL3_cGCqX5cfnZf-106" value="&lt;u style=&quot;font-size: 10px;&quot;&gt;(category_id)&lt;/u&gt;" style="ellipse;whiteSpace=wrap;html=1;strokeColor=#0F8B8D;fontColor=#143642;fillColor=#FAE5C7;aspect=fixed;fontSize=10;spacing=2;" parent="1" vertex="1">
          <mxGeometry x="512.5" y="674.68" width="55" height="41.25" as="geometry" />
        </mxCell>
        <mxCell id="5_Jmh0Oqb7QsA0RRIlAC-52" style="rounded=0;orthogonalLoop=1;jettySize=auto;html=1;exitX=0.5;exitY=0;exitDx=0;exitDy=0;entryX=0.5;entryY=1;entryDx=0;entryDy=0;endArrow=none;endFill=0;fillColor=#f8cecc;strokeColor=#b85450;" edge="1" parent="1" source="K0L70VL3_cGCqX5cfnZf-107" target="K0L70VL3_cGCqX5cfnZf-3">
          <mxGeometry relative="1" as="geometry" />
        </mxCell>
        <mxCell id="K0L70VL3_cGCqX5cfnZf-107" value="name" style="ellipse;whiteSpace=wrap;html=1;strokeColor=#0F8B8D;fontColor=#143642;fillColor=#FAE5C7;aspect=fixed;fontSize=10;spacing=2;" parent="1" vertex="1">
          <mxGeometry x="572.5" y="674.68" width="55" height="41.25" as="geometry" />
        </mxCell>
        <mxCell id="K0L70VL3_cGCqX5cfnZf-108" value="price" style="ellipse;whiteSpace=wrap;html=1;strokeColor=#0F8B8D;fontColor=#143642;fillColor=#FAE5C7;aspect=fixed;fontSize=10;spacing=2;" parent="1" vertex="1">
          <mxGeometry x="452.5" y="724.68" width="55" height="41.25" as="geometry" />
        </mxCell>
        <mxCell id="K0L70VL3_cGCqX5cfnZf-109" value="imageURL" style="ellipse;whiteSpace=wrap;html=1;strokeColor=#0F8B8D;fontColor=#143642;fillColor=#FAE5C7;aspect=fixed;fontSize=10;spacing=2;" parent="1" vertex="1">
          <mxGeometry x="512.5" y="724.68" width="55" height="41.25" as="geometry" />
        </mxCell>
        <mxCell id="K0L70VL3_cGCqX5cfnZf-110" value="date_creation" style="ellipse;whiteSpace=wrap;html=1;strokeColor=#0F8B8D;fontColor=#143642;fillColor=#FAE5C7;aspect=fixed;fontSize=10;spacing=2;" parent="1" vertex="1">
          <mxGeometry x="572.5" y="724.68" width="55" height="41.25" as="geometry" />
        </mxCell>
        <mxCell id="5_Jmh0Oqb7QsA0RRIlAC-51" style="rounded=0;orthogonalLoop=1;jettySize=auto;html=1;exitX=0.5;exitY=0;exitDx=0;exitDy=0;entryX=0.5;entryY=1;entryDx=0;entryDy=0;endArrow=none;endFill=0;fillColor=#f8cecc;strokeColor=#b85450;" edge="1" parent="1" source="K0L70VL3_cGCqX5cfnZf-111" target="K0L70VL3_cGCqX5cfnZf-3">
          <mxGeometry relative="1" as="geometry" />
        </mxCell>
        <mxCell id="K0L70VL3_cGCqX5cfnZf-111" value="description" style="ellipse;whiteSpace=wrap;html=1;strokeColor=#0F8B8D;fontColor=#143642;fillColor=#FAE5C7;aspect=fixed;fontSize=10;spacing=2;" parent="1" vertex="1">
          <mxGeometry x="632.5" y="674.68" width="55" height="41.25" as="geometry" />
        </mxCell>
        <mxCell id="5_Jmh0Oqb7QsA0RRIlAC-2" style="rounded=0;orthogonalLoop=1;jettySize=auto;html=1;exitX=0;exitY=0.5;exitDx=0;exitDy=0;entryX=1;entryY=0.5;entryDx=0;entryDy=0;endArrow=none;endFill=0;fillColor=#f8cecc;strokeColor=#b85450;" edge="1" parent="1" source="K0L70VL3_cGCqX5cfnZf-113" target="K0L70VL3_cGCqX5cfnZf-4">
          <mxGeometry relative="1" as="geometry" />
        </mxCell>
        <mxCell id="K0L70VL3_cGCqX5cfnZf-113" value="&lt;u style=&quot;font-size: 10px;&quot;&gt;ingredient_id&lt;/u&gt;" style="ellipse;whiteSpace=wrap;html=1;strokeColor=#0F8B8D;fontColor=#143642;fillColor=#FAE5C7;aspect=fixed;fontSize=10;spacing=2;" parent="1" vertex="1">
          <mxGeometry x="1095" y="521.87" width="55" height="41.25" as="geometry" />
        </mxCell>
        <mxCell id="5_Jmh0Oqb7QsA0RRIlAC-3" style="rounded=0;orthogonalLoop=1;jettySize=auto;html=1;exitX=0;exitY=0.5;exitDx=0;exitDy=0;entryX=1;entryY=0.5;entryDx=0;entryDy=0;endArrow=none;endFill=0;fillColor=#f8cecc;strokeColor=#b85450;" edge="1" parent="1" source="K0L70VL3_cGCqX5cfnZf-114" target="K0L70VL3_cGCqX5cfnZf-4">
          <mxGeometry relative="1" as="geometry">
            <mxPoint x="1080" y="630" as="targetPoint" />
          </mxGeometry>
        </mxCell>
        <mxCell id="K0L70VL3_cGCqX5cfnZf-114" value="name" style="ellipse;whiteSpace=wrap;html=1;strokeColor=#0F8B8D;fontColor=#143642;fillColor=#FAE5C7;aspect=fixed;fontSize=10;spacing=2;" parent="1" vertex="1">
          <mxGeometry x="1095" y="574.87" width="55" height="41.25" as="geometry" />
        </mxCell>
        <mxCell id="5_Jmh0Oqb7QsA0RRIlAC-4" style="rounded=0;orthogonalLoop=1;jettySize=auto;html=1;exitX=0;exitY=0.5;exitDx=0;exitDy=0;entryX=1;entryY=0.5;entryDx=0;entryDy=0;endArrow=none;endFill=0;fillColor=#f8cecc;strokeColor=#b85450;" edge="1" parent="1" source="K0L70VL3_cGCqX5cfnZf-115" target="K0L70VL3_cGCqX5cfnZf-4">
          <mxGeometry relative="1" as="geometry" />
        </mxCell>
        <mxCell id="K0L70VL3_cGCqX5cfnZf-115" value="date_creation" style="ellipse;whiteSpace=wrap;html=1;strokeColor=#0F8B8D;fontColor=#143642;fillColor=#FAE5C7;aspect=fixed;fontSize=10;spacing=2;" parent="1" vertex="1">
          <mxGeometry x="1095" y="628.87" width="55" height="41.25" as="geometry" />
        </mxCell>
        <mxCell id="K0L70VL3_cGCqX5cfnZf-116" value="(0:N)" style="text;html=1;align=center;verticalAlign=middle;resizable=0;points=[];autosize=1;strokeColor=none;fillColor=none;fontColor=#143642;fontSize=12;spacing=2;" parent="1" vertex="1">
          <mxGeometry x="200" y="201" width="50" height="30" as="geometry" />
        </mxCell>
        <mxCell id="K0L70VL3_cGCqX5cfnZf-117" value="(1:1)" style="text;html=1;align=center;verticalAlign=middle;resizable=0;points=[];autosize=1;strokeColor=none;fillColor=none;fontColor=#143642;fontSize=12;spacing=2;" parent="1" vertex="1">
          <mxGeometry x="465" y="201" width="45" height="30" as="geometry" />
        </mxCell>
        <mxCell id="K0L70VL3_cGCqX5cfnZf-118" value="(N:1)" style="text;html=1;align=center;verticalAlign=middle;resizable=0;points=[];autosize=1;strokeColor=none;fillColor=none;fontColor=#143642;fontSize=12;spacing=2;" parent="1" vertex="1">
          <mxGeometry x="338" y="163" width="50" height="30" as="geometry" />
        </mxCell>
        <mxCell id="K0L70VL3_cGCqX5cfnZf-122" value="(0:N)" style="text;html=1;align=center;verticalAlign=middle;resizable=0;points=[];autosize=1;strokeColor=none;fillColor=none;fontColor=#143642;fontSize=12;spacing=2;" parent="1" vertex="1">
          <mxGeometry x="163" y="258" width="50" height="30" as="geometry" />
        </mxCell>
        <mxCell id="K0L70VL3_cGCqX5cfnZf-123" value="(1:N)" style="text;html=1;align=center;verticalAlign=middle;resizable=0;points=[];autosize=1;strokeColor=none;fillColor=none;fontColor=#143642;fontSize=12;spacing=2;" parent="1" vertex="1">
          <mxGeometry x="510" y="536" width="50" height="30" as="geometry" />
        </mxCell>
        <mxCell id="K0L70VL3_cGCqX5cfnZf-124" value="(N:M)" style="text;html=1;align=center;verticalAlign=middle;resizable=0;points=[];autosize=1;strokeColor=none;fillColor=none;fontColor=#143642;fontSize=12;spacing=2;" parent="1" vertex="1">
          <mxGeometry x="337" y="366" width="50" height="30" as="geometry" />
        </mxCell>
        <mxCell id="K0L70VL3_cGCqX5cfnZf-125" value="(0:1)" style="text;html=1;align=center;verticalAlign=middle;resizable=0;points=[];autosize=1;strokeColor=none;fillColor=none;fontColor=#143642;fontSize=12;spacing=2;" parent="1" vertex="1">
          <mxGeometry x="633" y="201" width="45" height="30" as="geometry" />
        </mxCell>
        <mxCell id="K0L70VL3_cGCqX5cfnZf-126" value="(1:N)" style="text;html=1;align=center;verticalAlign=middle;resizable=0;points=[];autosize=1;strokeColor=none;fillColor=none;fontColor=#143642;fontSize=12;spacing=2;" parent="1" vertex="1">
          <mxGeometry x="957.5" y="201" width="50" height="30" as="geometry" />
        </mxCell>
        <mxCell id="K0L70VL3_cGCqX5cfnZf-127" value="(0:N)" style="text;html=1;align=center;verticalAlign=middle;resizable=0;points=[];autosize=1;strokeColor=none;fillColor=none;fontColor=#143642;fontSize=12;spacing=2;" parent="1" vertex="1">
          <mxGeometry x="770" y="185" width="50" height="30" as="geometry" />
        </mxCell>
        <mxCell id="K0L70VL3_cGCqX5cfnZf-128" value="&lt;u style=&quot;font-size: 10px;&quot;&gt;(user_id)&lt;/u&gt;" style="ellipse;whiteSpace=wrap;html=1;strokeColor=#0F8B8D;fontColor=#143642;fillColor=#FAE5C7;aspect=fixed;fontSize=10;spacing=2;" parent="1" vertex="1">
          <mxGeometry x="116" y="370" width="55" height="41.25" as="geometry" />
        </mxCell>
        <mxCell id="5_Jmh0Oqb7QsA0RRIlAC-47" style="rounded=0;orthogonalLoop=1;jettySize=auto;html=1;exitX=1;exitY=0.5;exitDx=0;exitDy=0;entryX=0;entryY=0.5;entryDx=0;entryDy=0;fillColor=#f8cecc;strokeColor=#b85450;endArrow=none;endFill=0;" edge="1" parent="1" source="K0L70VL3_cGCqX5cfnZf-129" target="K0L70VL3_cGCqX5cfnZf-54">
          <mxGeometry relative="1" as="geometry" />
        </mxCell>
        <mxCell id="K0L70VL3_cGCqX5cfnZf-129" value="&lt;u style=&quot;font-size: 10px;&quot;&gt;(product_id)&lt;/u&gt;" style="ellipse;whiteSpace=wrap;html=1;strokeColor=#0F8B8D;fontColor=#143642;fillColor=#FAE5C7;aspect=fixed;fontSize=10;spacing=2;" parent="1" vertex="1">
          <mxGeometry x="175" y="370" width="55" height="41.25" as="geometry" />
        </mxCell>
        <mxCell id="K0L70VL3_cGCqX5cfnZf-130" value="description" style="ellipse;whiteSpace=wrap;html=1;strokeColor=#0F8B8D;fontColor=#143642;fillColor=#FAE5C7;aspect=fixed;fontSize=10;spacing=2;" parent="1" vertex="1">
          <mxGeometry x="116" y="321.25" width="55" height="41.25" as="geometry" />
        </mxCell>
        <mxCell id="K0L70VL3_cGCqX5cfnZf-131" value="puntuaciÃ³n" style="ellipse;whiteSpace=wrap;html=1;strokeColor=#0F8B8D;fontColor=#143642;fillColor=#FAE5C7;aspect=fixed;fontSize=10;spacing=2;" parent="1" vertex="1">
          <mxGeometry x="116" y="422.5" width="55" height="41.25" as="geometry" />
        </mxCell>
        <mxCell id="5_Jmh0Oqb7QsA0RRIlAC-48" style="rounded=0;orthogonalLoop=1;jettySize=auto;html=1;exitX=1;exitY=0.5;exitDx=0;exitDy=0;entryX=0;entryY=0.5;entryDx=0;entryDy=0;fillColor=#f8cecc;strokeColor=#b85450;endArrow=none;endFill=0;" edge="1" parent="1" source="K0L70VL3_cGCqX5cfnZf-132" target="K0L70VL3_cGCqX5cfnZf-54">
          <mxGeometry relative="1" as="geometry" />
        </mxCell>
        <mxCell id="K0L70VL3_cGCqX5cfnZf-132" value="date_creation" style="ellipse;whiteSpace=wrap;html=1;strokeColor=#0F8B8D;fontColor=#143642;fillColor=#FAE5C7;aspect=fixed;fontSize=10;spacing=2;" parent="1" vertex="1">
          <mxGeometry x="175" y="422.5" width="55" height="41.25" as="geometry" />
        </mxCell>
        <mxCell id="K0L70VL3_cGCqX5cfnZf-133" value="&lt;u&gt;descuento_id&lt;/u&gt;" style="ellipse;whiteSpace=wrap;html=1;strokeColor=#0F8B8D;fontColor=#143642;fillColor=#FAE5C7;aspect=fixed;fontSize=10;spacing=2;" parent="1" vertex="1">
          <mxGeometry x="920" y="45" width="55" height="41.25" as="geometry" />
        </mxCell>
        <mxCell id="K0L70VL3_cGCqX5cfnZf-134" value="nombre" style="ellipse;whiteSpace=wrap;html=1;strokeColor=#0F8B8D;fontColor=#143642;fillColor=#FAE5C7;aspect=fixed;fontSize=10;spacing=2;" parent="1" vertex="1">
          <mxGeometry x="980" y="45" width="55" height="41.25" as="geometry" />
        </mxCell>
        <mxCell id="K0L70VL3_cGCqX5cfnZf-135" value="descripciÃ³n" style="ellipse;whiteSpace=wrap;html=1;strokeColor=#0F8B8D;fontColor=#143642;fillColor=#FAE5C7;aspect=fixed;fontSize=10;spacing=2;" parent="1" vertex="1">
          <mxGeometry x="1045" y="45" width="55" height="41.25" as="geometry" />
        </mxCell>
        <mxCell id="5_Jmh0Oqb7QsA0RRIlAC-39" style="rounded=0;orthogonalLoop=1;jettySize=auto;html=1;exitX=0.5;exitY=1;exitDx=0;exitDy=0;entryX=0.5;entryY=0;entryDx=0;entryDy=0;fillColor=#f8cecc;strokeColor=#b85450;endArrow=none;endFill=0;" edge="1" parent="1" source="K0L70VL3_cGCqX5cfnZf-136" target="K0L70VL3_cGCqX5cfnZf-7">
          <mxGeometry relative="1" as="geometry" />
        </mxCell>
        <mxCell id="K0L70VL3_cGCqX5cfnZf-136" value="date_ini" style="ellipse;whiteSpace=wrap;html=1;strokeColor=#0F8B8D;fontColor=#143642;fillColor=#FAE5C7;aspect=fixed;fontSize=10;spacing=2;" parent="1" vertex="1">
          <mxGeometry x="920" y="93.75" width="55" height="41.25" as="geometry" />
        </mxCell>
        <mxCell id="5_Jmh0Oqb7QsA0RRIlAC-42" style="rounded=0;orthogonalLoop=1;jettySize=auto;html=1;exitX=0.5;exitY=1;exitDx=0;exitDy=0;entryX=0.5;entryY=0;entryDx=0;entryDy=0;fillColor=#f8cecc;strokeColor=#b85450;endArrow=none;endFill=0;" edge="1" parent="1" source="K0L70VL3_cGCqX5cfnZf-137" target="K0L70VL3_cGCqX5cfnZf-7">
          <mxGeometry relative="1" as="geometry" />
        </mxCell>
        <mxCell id="K0L70VL3_cGCqX5cfnZf-137" value="date_fin" style="ellipse;whiteSpace=wrap;html=1;strokeColor=#0F8B8D;fontColor=#143642;fillColor=#FAE5C7;aspect=fixed;fontSize=10;spacing=2;" parent="1" vertex="1">
          <mxGeometry x="980" y="93.75" width="55" height="41.25" as="geometry" />
        </mxCell>
        <mxCell id="5_Jmh0Oqb7QsA0RRIlAC-41" style="rounded=0;orthogonalLoop=1;jettySize=auto;html=1;exitX=0.5;exitY=1;exitDx=0;exitDy=0;entryX=0.5;entryY=0;entryDx=0;entryDy=0;fillColor=#f8cecc;strokeColor=#b85450;endArrow=none;endFill=0;" edge="1" parent="1" source="K0L70VL3_cGCqX5cfnZf-138" target="K0L70VL3_cGCqX5cfnZf-7">
          <mxGeometry relative="1" as="geometry" />
        </mxCell>
        <mxCell id="K0L70VL3_cGCqX5cfnZf-138" value="date_creation" style="ellipse;whiteSpace=wrap;html=1;strokeColor=#0F8B8D;fontColor=#143642;fillColor=#FAE5C7;aspect=fixed;fontSize=10;spacing=2;" parent="1" vertex="1">
          <mxGeometry x="1045" y="93.75" width="55" height="41.25" as="geometry" />
        </mxCell>
        <mxCell id="5_Jmh0Oqb7QsA0RRIlAC-40" style="rounded=0;orthogonalLoop=1;jettySize=auto;html=1;exitX=0.5;exitY=1;exitDx=0;exitDy=0;entryX=0.5;entryY=0;entryDx=0;entryDy=0;fillColor=#f8cecc;strokeColor=#b85450;endArrow=none;endFill=0;" edge="1" parent="1" source="K0L70VL3_cGCqX5cfnZf-139" target="K0L70VL3_cGCqX5cfnZf-7">
          <mxGeometry relative="1" as="geometry" />
        </mxCell>
        <mxCell id="K0L70VL3_cGCqX5cfnZf-139" value="imagenURL" style="ellipse;whiteSpace=wrap;html=1;strokeColor=#0F8B8D;fontColor=#143642;fillColor=#FAE5C7;aspect=fixed;fontSize=10;spacing=2;" parent="1" vertex="1">
          <mxGeometry x="1110" y="93.75" width="55" height="41.25" as="geometry" />
        </mxCell>
        <mxCell id="K0L70VL3_cGCqX5cfnZf-142" value="porcentaje" style="ellipse;whiteSpace=wrap;html=1;strokeColor=#0F8B8D;fontColor=#143642;fillColor=#FAE5C7;aspect=fixed;fontSize=10;spacing=2;" parent="1" vertex="1">
          <mxGeometry x="1110" y="45" width="55" height="41.25" as="geometry" />
        </mxCell>
        <mxCell id="K0L70VL3_cGCqX5cfnZf-148" value="cantidad" style="ellipse;whiteSpace=wrap;html=1;direction=east;labelBackgroundColor=none;fillColor=#FAE5C7;strokeColor=#0F8B8D;fontColor=#143642;aspect=fixed;fontSize=10;spacing=2;" parent="1" vertex="1">
          <mxGeometry x="750" y="750.31" width="55" height="34.38" as="geometry" />
        </mxCell>
        <mxCell id="5_Jmh0Oqb7QsA0RRIlAC-53" style="rounded=0;orthogonalLoop=1;jettySize=auto;html=1;exitX=0.5;exitY=0;exitDx=0;exitDy=0;entryX=0.5;entryY=1;entryDx=0;entryDy=0;endArrow=none;endFill=0;fillColor=#f8cecc;strokeColor=#b85450;" edge="1" parent="1" source="K0L70VL3_cGCqX5cfnZf-149" target="K0L70VL3_cGCqX5cfnZf-26">
          <mxGeometry relative="1" as="geometry" />
        </mxCell>
        <mxCell id="K0L70VL3_cGCqX5cfnZf-149" value="&lt;u style=&quot;font-size: 10px;&quot;&gt;(producto_id)&lt;/u&gt;" style="ellipse;whiteSpace=wrap;html=1;direction=east;labelBackgroundColor=none;fillColor=#FAE5C7;strokeColor=#0F8B8D;fontColor=#143642;aspect=fixed;fontSize=10;spacing=2;" parent="1" vertex="1">
          <mxGeometry x="750" y="661.25" width="55" height="34.38" as="geometry" />
        </mxCell>
        <mxCell id="5_Jmh0Oqb7QsA0RRIlAC-54" style="rounded=0;orthogonalLoop=1;jettySize=auto;html=1;exitX=0.5;exitY=0;exitDx=0;exitDy=0;entryX=0.5;entryY=1;entryDx=0;entryDy=0;endArrow=none;endFill=0;fillColor=#f8cecc;strokeColor=#b85450;" edge="1" parent="1" source="K0L70VL3_cGCqX5cfnZf-150" target="K0L70VL3_cGCqX5cfnZf-26">
          <mxGeometry relative="1" as="geometry" />
        </mxCell>
        <mxCell id="K0L70VL3_cGCqX5cfnZf-150" value="&lt;u style=&quot;font-size: 10px;&quot;&gt;(ingredient_id)&lt;/u&gt;" style="ellipse;whiteSpace=wrap;html=1;direction=east;labelBackgroundColor=none;fillColor=#FAE5C7;strokeColor=#0F8B8D;fontColor=#143642;aspect=fixed;fontSize=10;spacing=2;" parent="1" vertex="1">
          <mxGeometry x="825" y="661.25" width="55" height="34.38" as="geometry" />
        </mxCell>
        <mxCell id="K0L70VL3_cGCqX5cfnZf-153" value="&lt;u style=&quot;font-size: 10px;&quot;&gt;(pedido_id)&lt;/u&gt;" style="ellipse;whiteSpace=wrap;html=1;strokeColor=#0F8B8D;fontColor=#143642;fillColor=#FAE5C7;aspect=fixed;fontSize=10;spacing=2;" parent="1" vertex="1">
          <mxGeometry x="387.5" y="338" width="55" height="41.25" as="geometry" />
        </mxCell>
        <mxCell id="5_Jmh0Oqb7QsA0RRIlAC-6" style="rounded=0;orthogonalLoop=1;jettySize=auto;html=1;exitX=1;exitY=0.5;exitDx=0;exitDy=0;entryX=0;entryY=0.5;entryDx=0;entryDy=0;endArrow=none;endFill=0;fillColor=#f8cecc;strokeColor=#b85450;" edge="1" parent="1" source="K0L70VL3_cGCqX5cfnZf-154" target="K0L70VL3_cGCqX5cfnZf-17">
          <mxGeometry relative="1" as="geometry" />
        </mxCell>
        <mxCell id="K0L70VL3_cGCqX5cfnZf-154" value="&lt;u style=&quot;font-size: 10px;&quot;&gt;(producto_id)&lt;/u&gt;" style="ellipse;whiteSpace=wrap;html=1;strokeColor=#0F8B8D;fontColor=#143642;fillColor=#FAE5C7;aspect=fixed;fontSize=10;spacing=2;" parent="1" vertex="1">
          <mxGeometry x="452.5" y="338" width="55" height="41.25" as="geometry" />
        </mxCell>
        <mxCell id="K0L70VL3_cGCqX5cfnZf-156" value="cantidad" style="ellipse;whiteSpace=wrap;html=1;strokeColor=#0F8B8D;fontColor=#143642;fillColor=#FAE5C7;aspect=fixed;fontSize=10;spacing=2;" parent="1" vertex="1">
          <mxGeometry x="387.5" y="390.25" width="55" height="41.25" as="geometry" />
        </mxCell>
        <mxCell id="5_Jmh0Oqb7QsA0RRIlAC-5" style="rounded=0;orthogonalLoop=1;jettySize=auto;html=1;exitX=1;exitY=0.5;exitDx=0;exitDy=0;entryX=0;entryY=0.5;entryDx=0;entryDy=0;fillColor=#f8cecc;strokeColor=#b85450;endArrow=none;endFill=0;" edge="1" parent="1" source="K0L70VL3_cGCqX5cfnZf-157" target="K0L70VL3_cGCqX5cfnZf-17">
          <mxGeometry relative="1" as="geometry" />
        </mxCell>
        <mxCell id="K0L70VL3_cGCqX5cfnZf-157" value="precio" style="ellipse;whiteSpace=wrap;html=1;strokeColor=#0F8B8D;fontColor=#143642;fillColor=#FAE5C7;aspect=fixed;fontSize=10;spacing=2;" parent="1" vertex="1">
          <mxGeometry x="452.5" y="392.75" width="55" height="41.25" as="geometry" />
        </mxCell>
        <mxCell id="K0L70VL3_cGCqX5cfnZf-162" value="(0:1)" style="text;html=1;align=center;verticalAlign=middle;resizable=0;points=[];autosize=1;strokeColor=none;fillColor=none;fontColor=#143642;" parent="1" vertex="1">
          <mxGeometry x="465" y="563.12" width="45" height="30" as="geometry" />
        </mxCell>
        <mxCell id="K0L70VL3_cGCqX5cfnZf-163" value="(1:N)" style="text;html=1;align=center;verticalAlign=middle;resizable=0;points=[];autosize=1;strokeColor=none;fillColor=none;fontColor=#143642;" parent="1" vertex="1">
          <mxGeometry x="197.5" y="737.5" width="50" height="30" as="geometry" />
        </mxCell>
        <mxCell id="iSdvlF1bitTTsrbkpCiu-1" value="(1:N)" style="text;html=1;align=center;verticalAlign=middle;resizable=0;points=[];autosize=1;strokeColor=none;fillColor=none;" parent="1" vertex="1">
          <mxGeometry x="630" y="596" width="50" height="30" as="geometry" />
        </mxCell>
        <mxCell id="iSdvlF1bitTTsrbkpCiu-2" value="(1:N)" style="text;html=1;align=center;verticalAlign=middle;resizable=0;points=[];autosize=1;strokeColor=none;fillColor=none;" parent="1" vertex="1">
          <mxGeometry x="885" y="566" width="50" height="30" as="geometry" />
        </mxCell>
        <mxCell id="5_Jmh0Oqb7QsA0RRIlAC-1" value="(N:M)" style="text;html=1;align=center;verticalAlign=middle;resizable=0;points=[];autosize=1;strokeColor=none;fillColor=none;" vertex="1" parent="1">
          <mxGeometry x="610" y="371" width="50" height="30" as="geometry" />
        </mxCell>
        <mxCell id="5_Jmh0Oqb7QsA0RRIlAC-22" value="(1:N)" style="text;html=1;align=center;verticalAlign=middle;resizable=0;points=[];autosize=1;strokeColor=none;fillColor=none;" vertex="1" parent="1">
          <mxGeometry x="570" y="261" width="50" height="30" as="geometry" />
        </mxCell>
        <mxCell id="5_Jmh0Oqb7QsA0RRIlAC-23" value="(1:N)" style="text;html=1;align=center;verticalAlign=middle;resizable=0;points=[];autosize=1;strokeColor=none;fillColor=none;" vertex="1" parent="1">
          <mxGeometry x="570" y="536" width="50" height="30" as="geometry" />
        </mxCell>
        <mxCell id="5_Jmh0Oqb7QsA0RRIlAC-25" value="(N:M)" style="text;html=1;align=center;verticalAlign=middle;resizable=0;points=[];autosize=1;strokeColor=none;fillColor=none;" vertex="1" parent="1">
          <mxGeometry x="791" y="523" width="50" height="30" as="geometry" />
        </mxCell>
        <mxCell id="5_Jmh0Oqb7QsA0RRIlAC-26" value="(N:1)" style="text;html=1;align=center;verticalAlign=middle;resizable=0;points=[];autosize=1;strokeColor=none;fillColor=none;" vertex="1" parent="1">
          <mxGeometry x="321" y="528" width="50" height="30" as="geometry" />
        </mxCell>
        <mxCell id="5_Jmh0Oqb7QsA0RRIlAC-27" value="(1:N)" style="text;html=1;align=center;verticalAlign=middle;resizable=0;points=[];autosize=1;strokeColor=none;fillColor=none;" vertex="1" parent="1">
          <mxGeometry x="1070" y="261" width="50" height="30" as="geometry" />
        </mxCell>
        <mxCell id="5_Jmh0Oqb7QsA0RRIlAC-28" value="&lt;u style=&quot;font-size: 10px;&quot;&gt;(id_descuento)&lt;/u&gt;" style="ellipse;whiteSpace=wrap;html=1;strokeColor=#0F8B8D;fontColor=#143642;fillColor=#FAE5C7;aspect=fixed;fontSize=10;spacing=2;" vertex="1" parent="1">
          <mxGeometry x="632.5" y="724.68" width="55" height="41.25" as="geometry" />
        </mxCell>
        <mxCell id="5_Jmh0Oqb7QsA0RRIlAC-29" value="(N:M)" style="text;html=1;align=center;verticalAlign=middle;resizable=0;points=[];autosize=1;strokeColor=none;fillColor=none;" vertex="1" parent="1">
          <mxGeometry x="856" y="308" width="50" height="30" as="geometry" />
        </mxCell>
        <mxCell id="5_Jmh0Oqb7QsA0RRIlAC-30" value="(1:N)" style="text;html=1;align=center;verticalAlign=middle;resizable=0;points=[];autosize=1;strokeColor=none;fillColor=none;" vertex="1" parent="1">
          <mxGeometry x="630" y="553" width="50" height="30" as="geometry" />
        </mxCell>
        <mxCell id="5_Jmh0Oqb7QsA0RRIlAC-36" style="rounded=0;orthogonalLoop=1;jettySize=auto;html=1;exitX=0.5;exitY=1;exitDx=0;exitDy=0;entryX=0.5;entryY=0;entryDx=0;entryDy=0;fillColor=#f8cecc;strokeColor=#b85450;endArrow=none;endFill=0;" edge="1" parent="1" source="5_Jmh0Oqb7QsA0RRIlAC-32" target="K0L70VL3_cGCqX5cfnZf-11">
          <mxGeometry relative="1" as="geometry" />
        </mxCell>
        <mxCell id="5_Jmh0Oqb7QsA0RRIlAC-32" value="&lt;u style=&quot;font-size: 10px;&quot;&gt;(pedido_id)&lt;/u&gt;" style="ellipse;whiteSpace=wrap;html=1;strokeColor=#0F8B8D;fontColor=#143642;fillColor=#FAE5C7;aspect=fixed;fontSize=10;spacing=2;" vertex="1" parent="1">
          <mxGeometry x="727.25" y="115" width="55" height="41.25" as="geometry" />
        </mxCell>
        <mxCell id="5_Jmh0Oqb7QsA0RRIlAC-38" style="rounded=0;orthogonalLoop=1;jettySize=auto;html=1;exitX=0.5;exitY=1;exitDx=0;exitDy=0;entryX=0.5;entryY=0;entryDx=0;entryDy=0;fillColor=#f8cecc;strokeColor=#b85450;endArrow=none;endFill=0;" edge="1" parent="1" source="5_Jmh0Oqb7QsA0RRIlAC-33" target="K0L70VL3_cGCqX5cfnZf-11">
          <mxGeometry relative="1" as="geometry" />
        </mxCell>
        <mxCell id="5_Jmh0Oqb7QsA0RRIlAC-33" value="&lt;u style=&quot;font-size: 10px;&quot;&gt;&lt;i style=&quot;font-size: 10px;&quot;&gt;(descuento_id)&lt;/i&gt;&lt;/u&gt;" style="ellipse;whiteSpace=wrap;html=1;strokeColor=#0F8B8D;fontColor=#143642;fillColor=#FAE5C7;aspect=fixed;fontSize=10;spacing=2;" vertex="1" parent="1">
          <mxGeometry x="787.25" y="115" width="55" height="41.25" as="geometry" />
        </mxCell>
        <mxCell id="5_Jmh0Oqb7QsA0RRIlAC-37" style="rounded=0;orthogonalLoop=1;jettySize=auto;html=1;exitX=0.5;exitY=1;exitDx=0;exitDy=0;entryX=0.5;entryY=0;entryDx=0;entryDy=0;fillColor=#f8cecc;strokeColor=#b85450;endArrow=none;endFill=0;" edge="1" parent="1" source="5_Jmh0Oqb7QsA0RRIlAC-34" target="K0L70VL3_cGCqX5cfnZf-11">
          <mxGeometry relative="1" as="geometry" />
        </mxCell>
        <mxCell id="5_Jmh0Oqb7QsA0RRIlAC-34" value="&lt;u style=&quot;font-size: 10px;&quot;&gt;(producto_id)&lt;/u&gt;" style="ellipse;whiteSpace=wrap;html=1;strokeColor=#0F8B8D;fontColor=#143642;fillColor=#FAE5C7;aspect=fixed;fontSize=10;spacing=2;" vertex="1" parent="1">
          <mxGeometry x="849.75" y="115" width="55" height="41.25" as="geometry" />
        </mxCell>
      </root>
    </mxGraphModel>
  </diagram>
</mxfile>
